<?xml version="1.0" encoding="UTF-8" standalone="no"?>
<svg
   xmlns:dc="http://purl.org/dc/elements/1.1/"
   xmlns:cc="http://creativecommons.org/ns#"
   xmlns:rdf="http://www.w3.org/1999/02/22-rdf-syntax-ns#"
   xmlns:svg="http://www.w3.org/2000/svg"
   xmlns="http://www.w3.org/2000/svg"
   xmlns:sodipodi="http://sodipodi.sourceforge.net/DTD/sodipodi-0.dtd"
   xmlns:inkscape="http://www.inkscape.org/namespaces/inkscape"
   width="478.65701"
   height="185"
   id="svg3336"
   version="1.1"
   inkscape:version="0.91 r13725"
   sodipodi:docname="dm_branding.svg">
  <metadata
     id="metadata3394">
    <rdf:RDF>
      <cc:Work
         rdf:about="">
        <dc:format>image/svg+xml</dc:format>
        <dc:type
           rdf:resource="http://purl.org/dc/dcmitype/StillImage" />
        <dc:title />
      </cc:Work>
    </rdf:RDF>
  </metadata>
  <sodipodi:namedview
     pagecolor="#ffffff"
     bordercolor="#666666"
     borderopacity="1"
     objecttolerance="10"
     gridtolerance="10"
     guidetolerance="10"
     inkscape:pageopacity="0"
     inkscape:pageshadow="2"
     inkscape:window-width="1920"
     inkscape:window-height="1058"
     id="namedview3392"
     showgrid="false"
     inkscape:zoom="3.9339628"
     inkscape:cx="160.55584"
     inkscape:cy="102.34381"
     inkscape:window-x="-8"
     inkscape:window-y="-8"
     inkscape:window-maximized="1"
     inkscape:current-layer="svg3336" />
  <circle
     style="opacity:1;fill:#f853a3;fill-opacity:1"
     cx="93.854851"
     cy="72.279831"
     x1="NaN"
     y1="NaN"
     x2="NaN"
     y2="NaN"
     x="NaN"
     y="NaN"
     id="svg_84"
     r="24.194244"
     transform="matrix(0.9781476,0.20791169,-0.20791169,0.9781476,0,0)" />
  <ellipse
     style="fill:#baed00;fill-opacity:1"
     cx="271.87289"
     cy="92.527588"
     id="svg_32"
     x1="NaN"
     y1="NaN"
     x2="NaN"
     y2="NaN"
     x="NaN"
     y="NaN"
     rx="92.28537"
     ry="92.031174" />
  <text
     sodipodi:linespacing="125%"
     style="font-style:normal;font-variant:normal;font-weight:bold;font-stretch:normal;font-size:48.65375137px;line-height:125%;font-family:Merriweather;-inkscape-font-specification:'Merriweather, Bold';text-align:center;writing-mode:lr-tb;text-anchor:middle;fill:#707070;fill-opacity:1;stroke-width:0;"
     stroke-linejoin="null"
     stroke-linecap="null"
     x="217.49892"
     y="100.52589"
     id="svg_43"
     font-size="24"
     xml:space="preserve"
     transform="scale(1.0397459,0.96177345)"
     font-weight="normal"
     font-style="normal">Darencja</text>
  <circle
     style="opacity:1;fill:#21d614;fill-opacity:1"
     cx="146.39439"
     cy="102.36374"
     r="19.618706"
     id="svg_40"
     x1="NaN"
     y1="NaN"
     x2="NaN"
     y2="NaN"
     x="NaN"
     y="NaN"
     transform="matrix(0.9781476,0.20791169,-0.20791169,0.9781476,0,0)" />
  <circle
     style="opacity:1;fill:#ff761b;fill-opacity:1"
     cx="94.70137"
     cy="131.59882"
     id="svg_41"
     x1="NaN"
     y1="NaN"
     x2="NaN"
     y2="NaN"
     x="NaN"
     y="NaN"
     r="28.261391"
     transform="matrix(0.9781476,0.20791169,-0.20791169,0.9781476,0,0)" />
  <text
     sodipodi:linespacing="125%"
     style="font-style:normal;font-variant:normal;font-weight:bold;font-stretch:normal;font-size:48.26125336px;line-height:125%;font-family:Merriweather;-inkscape-font-specification:'Merriweather, Bold';text-align:center;writing-mode:lr-tb;text-anchor:middle;fill:#19647f;fill-opacity:1;stroke-width:0"
     stroke-linejoin="null"
     stroke-linecap="null"
     x="329.57898"
     y="146.66559"
     id="svg_44"
     font-size="24"
     xml:space="preserve"
     transform="scale(1.0261524,0.97451411)"
     font-weight="normal">book</text>
  <path
     style="fill:#ff0000;stroke-width:0"
     inkscape:connector-curvature="0"
     stroke-linejoin="null"
     stroke-linecap="null"
     d="m 609.999,660.31668 c 6.1e-4,-0.0675 0.1095,-0.0898 0.15418,-0.1366 0.17254,-0.11578 0.34069,-0.24951 0.44641,-0.432 0.11236,-0.18647 0.17334,-0.41486 0.12762,-0.63111 -0.0242,-0.13421 -0.15466,-0.24164 -0.29272,-0.22485 -0.0909,0.0124 -0.19593,0.0334 -0.24848,0.11731 -0.0571,0.0429 -0.0257,0.14337 0.0504,0.10522 0.0974,-0.0372 0.21966,0.0386 0.21582,0.14606 1.2e-4,0.10187 -0.10303,0.17371 -0.1991,0.16418 -0.10705,-10e-4 -0.21301,-0.0875 -0.21075,-0.1994 -0.007,-0.18048 0.14868,-0.32788 0.31586,-0.36566 0.14941,-0.0466 0.32312,-0.0278 0.44915,0.069 0.0937,0.0641 0.16761,0.16126 0.18299,0.27594 0.0333,0.14911 -0.01,0.30298 -0.0843,0.43274 -0.0958,0.17474 -0.24225,0.31781 -0.41223,0.42047 -0.15784,0.10065 -0.32203,0.19159 -0.49189,0.27039 -9.7e-4,-0.004 -0.002,-0.008 -0.003,-0.0117 z m 1.1341,-0.73578 c -0.0813,-0.0368 -0.0634,-0.18634 0.0312,-0.1897 0.0708,-0.0165 0.1369,0.0575 0.11505,0.12592 -0.0138,0.064 -0.0906,0.0917 -0.1463,0.0638 z m 0,-0.40906 c -0.0813,-0.0368 -0.0634,-0.1864 0.0312,-0.18975 0.0708,-0.0165 0.1369,0.0575 0.11505,0.12591 -0.0142,0.0642 -0.0903,0.0916 -0.1463,0.0638 z"
     id="svg_51" />
  <path
     style="fill:#ff0000;stroke-width:0"
     inkscape:connector-curvature="0"
     stroke-linejoin="null"
     stroke-linecap="null"
     d="m 779.43766,704.37283 c 0.0195,-2.07306 3.36646,-2.75824 4.7403,-4.19995 5.3059,-3.55755 10.47503,-7.66974 13.7243,-13.28143 3.45428,-5.73151 5.32941,-12.75464 3.92419,-19.40161 -0.74579,-4.12744 -4.75482,-7.42969 -8.99987,-6.91211 -2.79334,0.38055 -6.02283,1.02527 -7.63984,3.60541 -1.75659,1.31994 -0.78875,4.40686 1.54981,3.23431 2.99322,-1.14166 6.75293,1.19037 6.63483,4.49146 0.005,3.12982 -3.16596,5.33911 -6.12146,5.04705 -3.28937,-0.0336 -6.54816,-2.68841 -6.47712,-6.13037 -0.22741,-5.54876 4.57093,-10.08026 9.71045,-11.24341 4.5932,-1.4309 9.9336,-0.85351 13.80756,2.12494 2.88489,1.9693 5.15362,4.9571 5.62713,8.48188 1.02363,4.58587 -0.29693,9.31543 -2.58996,13.30291 -2.94727,5.37372 -7.44928,9.77314 -12.67499,12.93073 -4.85413,3.09436 -9.90002,5.8891 -15.12335,8.31286 -0.0291,-0.12078 -0.061,-0.24206 -0.092,-0.36267 z m 34.86816,-22.6206 c -2.49841,-1.12933 -1.94872,-5.72742 0.96076,-5.83124 2.17663,-0.50763 4.20947,1.76581 3.53546,3.87024 -0.42249,1.96857 -2.78552,2.81994 -4.49622,1.961 z m 0,-12.57569 c -2.49841,-1.13262 -1.94872,-5.7326 0.96076,-5.83355 2.17663,-0.50672 4.20947,1.76757 3.53546,3.86956 -0.43494,1.97333 -2.77344,2.81678 -4.49622,1.96399 z"
     id="svg_52" />
  <path
     style="fill:#ff0000;stroke-width:0"
     inkscape:connector-curvature="0"
     stroke-linejoin="null"
     stroke-linecap="null"
     d="m 858.749,630.46664 c 6.1e-4,-0.0675 0.1095,-0.0898 0.15418,-0.13659 0.17254,-0.11579 0.34069,-0.24952 0.44641,-0.43201 0.11236,-0.18646 0.17334,-0.41486 0.12762,-0.6311 -0.0242,-0.13422 -0.15466,-0.24164 -0.29272,-0.22486 -0.0909,0.0125 -0.19593,0.0334 -0.24848,0.11731 -0.0571,0.0429 -0.0257,0.14337 0.0504,0.10523 0.0974,-0.0372 0.21966,0.0386 0.21582,0.14605 1.2e-4,0.10187 -0.10303,0.17371 -0.1991,0.16419 -0.10705,-10e-4 -0.21301,-0.0875 -0.21075,-0.1994 -0.007,-0.18048 0.14868,-0.32788 0.31586,-0.36567 0.14941,-0.0466 0.32312,-0.0278 0.44915,0.069 0.0937,0.0641 0.16761,0.16125 0.18299,0.27594 0.0333,0.1491 -0.01,0.30297 -0.0843,0.43273 -0.0958,0.17475 -0.24225,0.31781 -0.41223,0.42048 -0.15784,0.10064 -0.32203,0.19158 -0.49189,0.27038 -9.7e-4,-0.004 -0.002,-0.008 -0.003,-0.0117 z m 1.1341,-0.73577 c -0.0813,-0.0368 -0.0634,-0.18634 0.0312,-0.1897 0.0708,-0.0165 0.1369,0.0575 0.11505,0.12591 -0.0138,0.064 -0.0906,0.0917 -0.1463,0.0638 z m 0,-0.40906 c -0.0813,-0.0368 -0.0634,-0.1864 0.0312,-0.18976 0.0708,-0.0165 0.1369,0.0575 0.11505,0.12592 -0.0142,0.0642 -0.0903,0.0916 -0.1463,0.0638 z"
     id="svg_53" />
  <path
     style="fill:#ff0000;stroke-width:0"
     inkscape:connector-curvature="0"
     stroke-linejoin="null"
     stroke-linecap="null"
     d="m 1077.6491,749.86667 c 6e-4,-0.0675 0.1095,-0.0898 0.1541,-0.1366 0.1726,-0.11578 0.3407,-0.24951 0.4465,-0.43201 0.1124,-0.18646 0.1733,-0.41485 0.1275,-0.6311 -0.024,-0.13422 -0.1546,-0.24164 -0.2926,-0.22485 -0.091,0.0124 -0.1959,0.0334 -0.2485,0.11731 -0.057,0.0429 -0.026,0.14337 0.05,0.10522 0.097,-0.0372 0.2197,0.0386 0.2158,0.14606 1e-4,0.10187 -0.103,0.1737 -0.1991,0.16418 -0.107,-10e-4 -0.213,-0.0875 -0.2107,-0.1994 -0.01,-0.18048 0.1487,-0.32788 0.3158,-0.36566 0.1494,-0.0466 0.3231,-0.0278 0.4491,0.069 0.094,0.0641 0.1676,0.16125 0.183,0.27594 0.033,0.14911 -0.01,0.30298 -0.084,0.43274 -0.096,0.17474 -0.2422,0.31781 -0.4123,0.42047 -0.1578,0.10065 -0.322,0.19159 -0.4919,0.27039 -0,-0.004 0,-0.008 0,-0.0117 z m 1.134,-0.73578 c -0.081,-0.0368 -0.063,-0.18634 0.031,-0.1897 0.071,-0.0165 0.137,0.0575 0.1152,0.12592 -0.014,0.064 -0.091,0.0917 -0.1464,0.0638 z m 0,-0.40906 c -0.081,-0.0368 -0.063,-0.1864 0.031,-0.18976 0.071,-0.0165 0.137,0.0575 0.1152,0.12592 -0.014,0.0642 -0.09,0.0916 -0.1464,0.0638 z"
     id="svg_54" />
  <path
     style="fill:#ff0000;stroke-width:0"
     inkscape:connector-curvature="0"
     stroke-linejoin="null"
     stroke-linecap="null"
     d="m 808.999,660.31668 c 6.1e-4,-0.0675 0.1095,-0.0898 0.15418,-0.1366 0.17254,-0.11578 0.34069,-0.24951 0.44641,-0.432 0.11236,-0.18647 0.17334,-0.41486 0.12762,-0.63111 -0.0242,-0.13421 -0.15466,-0.24164 -0.29272,-0.22485 -0.0909,0.0124 -0.19593,0.0334 -0.24848,0.11731 -0.0571,0.0429 -0.0257,0.14337 0.0504,0.10522 0.0974,-0.0372 0.21966,0.0386 0.21582,0.14606 1.2e-4,0.10187 -0.10303,0.17371 -0.1991,0.16418 -0.10705,-10e-4 -0.21301,-0.0875 -0.21075,-0.1994 -0.007,-0.18048 0.14868,-0.32788 0.31586,-0.36566 0.14941,-0.0466 0.32312,-0.0278 0.44915,0.069 0.0937,0.0641 0.16761,0.16126 0.18299,0.27594 0.0333,0.14911 -0.01,0.30298 -0.0843,0.43274 -0.0958,0.17474 -0.24225,0.31781 -0.41223,0.42047 -0.15784,0.10065 -0.32203,0.19159 -0.49189,0.27039 -9.7e-4,-0.004 -0.002,-0.008 -0.003,-0.0117 z m 1.1341,-0.73578 c -0.0813,-0.0368 -0.0634,-0.18634 0.0312,-0.1897 0.0708,-0.0165 0.1369,0.0575 0.11505,0.12592 -0.0138,0.064 -0.0906,0.0917 -0.1463,0.0638 z m 0,-0.40906 c -0.0813,-0.0368 -0.0634,-0.1864 0.0312,-0.18975 0.0708,-0.0165 0.1369,0.0575 0.11505,0.12591 -0.0142,0.0642 -0.0903,0.0916 -0.1463,0.0638 z"
     id="svg_55" />
  <path
     style="fill:#ff0000;stroke-width:0"
     inkscape:connector-curvature="0"
     stroke-linejoin="null"
     stroke-linecap="null"
     d="m 600.04905,650.36667 c 6.1e-4,-0.0675 0.1095,-0.0898 0.15418,-0.1366 0.17254,-0.11578 0.34069,-0.24951 0.44641,-0.43201 0.11236,-0.18646 0.17334,-0.41485 0.12762,-0.6311 -0.0242,-0.13422 -0.15466,-0.24164 -0.29272,-0.22485 -0.0909,0.0124 -0.19593,0.0334 -0.24848,0.11731 -0.0571,0.0429 -0.0257,0.14337 0.0504,0.10522 0.0974,-0.0372 0.21966,0.0386 0.21582,0.14606 1.2e-4,0.10187 -0.10303,0.1737 -0.1991,0.16418 -0.10706,-10e-4 -0.21301,-0.0875 -0.21075,-0.1994 -0.007,-0.18048 0.14868,-0.32788 0.31585,-0.36566 0.14942,-0.0466 0.32312,-0.0278 0.44916,0.069 0.0937,0.0641 0.1676,0.16125 0.18298,0.27594 0.0333,0.14911 -0.01,0.30298 -0.0843,0.43274 -0.0958,0.17474 -0.24224,0.31781 -0.41223,0.42047 -0.15783,0.10065 -0.32202,0.19159 -0.49188,0.27039 -9.8e-4,-0.004 -0.002,-0.008 -0.003,-0.0117 z m 1.13409,-0.73578 c -0.0813,-0.0368 -0.0634,-0.18634 0.0312,-0.1897 0.0708,-0.0165 0.13691,0.0575 0.11506,0.12592 -0.0138,0.064 -0.0906,0.0917 -0.14631,0.0638 z m 0,-0.40906 c -0.0813,-0.0368 -0.0634,-0.1864 0.0312,-0.18976 0.0708,-0.0165 0.13691,0.0575 0.11506,0.12592 -0.0142,0.0642 -0.0903,0.0916 -0.14631,0.0638 z"
     id="svg_56" />
  <path
     style="fill:#7f0000;stroke-width:0"
     inkscape:connector-curvature="0"
     stroke-linejoin="null"
     stroke-linecap="null"
     d="m 1077.6491,779.71664 c 6e-4,-0.0675 0.1095,-0.0898 0.1541,-0.13659 0.1726,-0.11579 0.3407,-0.24952 0.4465,-0.43201 0.1124,-0.18646 0.1733,-0.41486 0.1275,-0.6311 -0.024,-0.13422 -0.1546,-0.24164 -0.2926,-0.22486 -0.091,0.0125 -0.1959,0.0334 -0.2485,0.11731 -0.057,0.0429 -0.026,0.14337 0.05,0.10523 0.097,-0.0372 0.2197,0.0386 0.2158,0.14605 1e-4,0.10187 -0.103,0.17371 -0.1991,0.16419 -0.107,-10e-4 -0.213,-0.0875 -0.2107,-0.1994 -0.01,-0.18048 0.1487,-0.32788 0.3158,-0.36567 0.1494,-0.0466 0.3231,-0.0278 0.4491,0.069 0.094,0.0641 0.1676,0.16125 0.183,0.27594 0.033,0.1491 -0.01,0.30297 -0.084,0.43273 -0.096,0.17475 -0.2422,0.31781 -0.4123,0.42048 -0.1578,0.10064 -0.322,0.19158 -0.4919,0.27038 -0,-0.004 0,-0.008 0,-0.0117 z m 1.134,-0.73577 c -0.081,-0.0368 -0.063,-0.18634 0.031,-0.1897 0.071,-0.0165 0.137,0.0575 0.1152,0.12591 -0.014,0.064 -0.091,0.0917 -0.1464,0.0638 z m 0,-0.40906 c -0.081,-0.0368 -0.063,-0.1864 0.031,-0.18976 0.071,-0.0165 0.137,0.0575 0.1152,0.12592 -0.014,0.0642 -0.09,0.0916 -0.1464,0.0638 z"
     id="svg_57" />
  <path
     style="fill:#7f0000;stroke-width:0"
     inkscape:connector-curvature="0"
     stroke-linejoin="null"
     stroke-linecap="null"
     d="m 1077.6491,759.81668 c 6e-4,-0.0675 0.1095,-0.0898 0.1541,-0.1366 0.1726,-0.11578 0.3407,-0.24951 0.4465,-0.432 0.1124,-0.18647 0.1733,-0.41486 0.1275,-0.63111 -0.024,-0.13421 -0.1546,-0.24164 -0.2926,-0.22485 -0.091,0.0124 -0.1959,0.0334 -0.2485,0.11731 -0.057,0.0429 -0.026,0.14337 0.05,0.10522 0.097,-0.0372 0.2197,0.0386 0.2158,0.14606 1e-4,0.10187 -0.103,0.17371 -0.1991,0.16418 -0.107,-10e-4 -0.213,-0.0875 -0.2107,-0.1994 -0.01,-0.18048 0.1487,-0.32788 0.3158,-0.36566 0.1494,-0.0466 0.3231,-0.0278 0.4491,0.069 0.094,0.0641 0.1676,0.16126 0.183,0.27594 0.033,0.14911 -0.01,0.30298 -0.084,0.43274 -0.096,0.17474 -0.2422,0.31781 -0.4123,0.42047 -0.1578,0.10065 -0.322,0.19159 -0.4919,0.27039 -0,-0.004 0,-0.008 0,-0.0117 z m 1.134,-0.73578 c -0.081,-0.0368 -0.063,-0.18634 0.031,-0.1897 0.071,-0.0165 0.137,0.0575 0.1152,0.12592 -0.014,0.064 -0.091,0.0917 -0.1464,0.0638 z m 0,-0.40906 c -0.081,-0.0368 -0.063,-0.1864 0.031,-0.18975 0.071,-0.0165 0.137,0.0575 0.1152,0.12591 -0.014,0.0642 -0.09,0.0916 -0.1464,0.0638 z"
     id="svg_58" />
  <path
     style="fill:#7f0000;stroke-width:0"
     inkscape:connector-curvature="0"
     stroke-linejoin="null"
     stroke-linecap="null"
     d="m 1147.2991,451.36667 c 6e-4,-0.0675 0.1095,-0.0897 0.1542,-0.1366 0.1726,-0.11578 0.3407,-0.24948 0.4464,-0.43198 0.1124,-0.18646 0.1733,-0.41485 0.1275,-0.63116 -0.024,-0.13419 -0.1546,-0.24161 -0.2926,-0.22482 -0.091,0.0125 -0.1959,0.0334 -0.2485,0.11731 -0.057,0.0429 -0.026,0.14337 0.05,0.10522 0.097,-0.0372 0.2197,0.0386 0.2158,0.14606 2e-4,0.10187 -0.103,0.17374 -0.1991,0.16415 -0.107,-10e-4 -0.213,-0.0874 -0.2107,-0.1994 -0.01,-0.18045 0.1487,-0.32782 0.3158,-0.36563 0.1495,-0.0466 0.3232,-0.0278 0.4491,0.069 0.094,0.0641 0.1676,0.16126 0.183,0.27594 0.033,0.14911 -0.01,0.30301 -0.084,0.43271 -0.096,0.17477 -0.2422,0.31784 -0.4122,0.42047 -0.1579,0.10068 -0.3221,0.19159 -0.492,0.27039 0,-0.004 0,-0.008 0,-0.0117 z m 1.134,-0.73575 c -0.081,-0.0368 -0.063,-0.18637 0.031,-0.18973 0.071,-0.0165 0.1369,0.0575 0.1151,0.12589 -0.014,0.064 -0.091,0.0918 -0.1464,0.0638 z m 0,-0.40912 c -0.081,-0.0368 -0.063,-0.18634 0.031,-0.18973 0.071,-0.0165 0.1369,0.0575 0.1151,0.12589 -0.014,0.0642 -0.09,0.0917 -0.1464,0.0638 z"
     id="svg_59" />
  <path
     style="fill:#7f0000;stroke-width:0;filter:url(#svg_60_blur)"
     inkscape:connector-curvature="0"
     stroke-linejoin="null"
     stroke-linecap="null"
     d="m 1015.0077,409.43622 c 6e-4,-0.0675 0.1095,-0.0897 0.1542,-0.1366 0.1725,-0.11578 0.3407,-0.24948 0.4464,-0.43198 0.1123,-0.18646 0.1733,-0.41485 0.1276,-0.63116 -0.024,-0.13419 -0.1547,-0.24161 -0.2927,-0.22482 -0.091,0.0125 -0.1959,0.0334 -0.2485,0.11731 -0.057,0.0429 -0.026,0.14337 0.05,0.10522 0.097,-0.0372 0.2197,0.0386 0.2158,0.14606 2e-4,0.10187 -0.103,0.17374 -0.1991,0.16415 -0.107,-10e-4 -0.213,-0.0874 -0.2107,-0.1994 -0.01,-0.18045 0.1487,-0.32782 0.3158,-0.36563 0.1495,-0.0466 0.3232,-0.0278 0.4492,0.069 0.094,0.0641 0.1676,0.16126 0.183,0.27594 0.033,0.14911 -0.01,0.30301 -0.084,0.43271 -0.096,0.17477 -0.2423,0.31784 -0.4122,0.42047 -0.1579,0.10068 -0.3221,0.19159 -0.4919,0.27039 0,-0.004 0,-0.008 0,-0.0117 z m 1.1341,-0.73575 c -0.081,-0.0368 -0.063,-0.18637 0.031,-0.18973 0.071,-0.0165 0.1369,0.0575 0.1151,0.12589 -0.014,0.064 -0.091,0.0918 -0.1463,0.0638 z m 0,-0.40912 c -0.081,-0.0368 -0.063,-0.18634 0.031,-0.18973 0.071,-0.0165 0.1369,0.0575 0.1151,0.12589 -0.014,0.0642 -0.09,0.0917 -0.1463,0.0638 z"
     id="svg_60"
     transform="matrix(0.96592583,-0.25881905,0.25881905,0.96592583,-38.381323,318.72623)" />
  <path
     style="fill:#7f0000;stroke-width:0"
     inkscape:connector-curvature="0"
     stroke-linejoin="null"
     stroke-linecap="null"
     d="m 1057.749,650.36667 c 7e-4,-0.0675 0.1095,-0.0898 0.1542,-0.1366 0.1726,-0.11578 0.3407,-0.24951 0.4464,-0.43201 0.1125,-0.18646 0.1734,-0.41485 0.1276,-0.6311 -0.024,-0.13422 -0.1547,-0.24164 -0.2926,-0.22485 -0.091,0.0124 -0.1959,0.0334 -0.2485,0.11731 -0.057,0.0429 -0.026,0.14337 0.05,0.10522 0.097,-0.0372 0.2197,0.0386 0.2158,0.14606 10e-5,0.10187 -0.103,0.1737 -0.1991,0.16418 -0.1071,-10e-4 -0.213,-0.0875 -0.2107,-0.1994 -0.01,-0.18048 0.1487,-0.32788 0.3158,-0.36566 0.1494,-0.0466 0.3231,-0.0278 0.4491,0.069 0.094,0.0641 0.1676,0.16125 0.183,0.27594 0.033,0.14911 -0.01,0.30298 -0.084,0.43274 -0.096,0.17474 -0.2421,0.31781 -0.4122,0.42047 -0.1578,0.10065 -0.322,0.19159 -0.4919,0.27039 0,-0.004 0,-0.008 0,-0.0117 z m 1.1341,-0.73578 c -0.081,-0.0368 -0.063,-0.18634 0.031,-0.1897 0.071,-0.0165 0.137,0.0575 0.1151,0.12592 -0.014,0.064 -0.091,0.0917 -0.1463,0.0638 z m 0,-0.40906 c -0.081,-0.0368 -0.063,-0.1864 0.031,-0.18976 0.071,-0.0165 0.137,0.0575 0.1151,0.12592 -0.014,0.0642 -0.09,0.0916 -0.1463,0.0638 z"
     id="svg_61" />
  <path
     style="fill:#7f0000;stroke-width:0"
     inkscape:connector-curvature="0"
     stroke-linejoin="null"
     stroke-linecap="null"
     d="m 1485.599,710.06668 c 6e-4,-0.0675 0.1095,-0.0898 0.1542,-0.1366 0.1726,-0.11578 0.3407,-0.24951 0.4464,-0.432 0.1124,-0.18647 0.1733,-0.41486 0.1276,-0.63111 -0.024,-0.13421 -0.1547,-0.24164 -0.2926,-0.22485 -0.091,0.0124 -0.196,0.0334 -0.2486,0.11731 -0.057,0.0429 -0.026,0.14337 0.05,0.10522 0.097,-0.0372 0.2198,0.0386 0.2159,0.14606 10e-5,0.10187 -0.1031,0.17371 -0.1991,0.16418 -0.1071,-10e-4 -0.213,-0.0875 -0.2107,-0.1994 -0.01,-0.18048 0.1487,-0.32788 0.3158,-0.36566 0.1494,-0.0466 0.3231,-0.0278 0.4491,0.069 0.094,0.0641 0.1676,0.16126 0.1829,0.27594 0.033,0.14911 -0.01,0.30298 -0.084,0.43274 -0.096,0.17474 -0.2422,0.31781 -0.4122,0.42047 -0.1578,0.10065 -0.322,0.19159 -0.492,0.27039 -9e-4,-0.004 0,-0.008 0,-0.0117 z m 1.1341,-0.73578 c -0.081,-0.0368 -0.063,-0.18634 0.031,-0.1897 0.071,-0.0165 0.137,0.0575 0.1151,0.12592 -0.014,0.064 -0.091,0.0917 -0.1463,0.0638 z m 0,-0.40906 c -0.081,-0.0368 -0.063,-0.1864 0.031,-0.18975 0.071,-0.0165 0.137,0.0575 0.1151,0.12591 -0.014,0.0642 -0.09,0.0916 -0.1463,0.0638 z"
     id="svg_62" />
  <path
     style="fill:#7f0000;stroke-width:0"
     inkscape:connector-curvature="0"
     stroke-linejoin="null"
     stroke-linecap="null"
     d="m 1329.381,679.70004 c 0.027,-3.04718 4.9424,-4.05346 6.9618,-6.16766 7.7931,-5.22705 15.3804,-11.26465 20.154,-19.50385 5.0739,-8.41882 7.8278,-18.73083 5.7575,-28.49292 -1.0895,-6.06054 -6.9821,-10.91119 -13.2108,-10.1535 -4.1051,0.56323 -8.8433,1.50769 -11.2202,5.29718 -2.5791,1.93781 -1.1625,6.47327 2.2763,4.75067 4.3985,-1.67834 9.9212,1.74469 9.7448,6.59509 0,4.59839 -4.6514,7.84247 -8.9893,7.41254 -4.8334,-0.0501 -9.6181,-3.9491 -9.5123,-9.00262 -0.3367,-8.14923 6.7146,-14.80378 14.2573,-16.5094 6.7455,-2.10334 14.589,-1.25659 20.2767,3.11645 4.2331,2.89398 7.5688,7.27954 8.2623,12.45758 1.5024,6.73273 -0.4357,13.68024 -3.8044,19.53907 -4.3255,7.8891 -10.9343,14.34759 -18.6115,18.98443 -7.1264,4.54236 -14.5378,8.64923 -22.2094,12.20691 -0.046,-0.17694 -0.089,-0.35358 -0.1328,-0.52997 z m 51.2004,-33.21924 c -3.666,-1.66089 -2.8559,-8.41333 1.4108,-8.56475 3.1953,-0.74396 6.181,2.59582 5.1967,5.68536 -0.6239,2.89026 -4.0935,4.14148 -6.6075,2.8794 z m 0,-18.46832 c -3.666,-1.66138 -2.8559,-8.41687 1.4108,-8.56811 3.1953,-0.74329 6.181,2.59674 5.1967,5.68524 -0.6399,2.89911 -4.073,4.13635 -6.6075,2.88287 z"
     id="svg_63" />
  <path
     style="fill:#7f0000;stroke-width:0"
     inkscape:connector-curvature="0"
     stroke-linejoin="null"
     stroke-linecap="null"
     d="m 864.98411,719.39523 c 0,-0.26538 0.4245,-0.35046 0.59796,-0.53442 0.67255,-0.44952 1.32733,-0.96979 1.73767,-1.68115 0.43878,-0.72528 0.67603,-1.61371 0.49896,-2.45587 -0.0953,-0.52375 -0.60162,-0.94135 -1.13928,-0.87427 -0.35425,0.0459 -0.76477,0.12726 -0.97003,0.45642 -0.21948,0.16662 -0.0989,0.55572 0.19812,0.41064 0.37884,-0.14508 0.85321,0.14862 0.83893,0.56629 0,0.39642 -0.40009,0.67566 -0.77515,0.64056 -0.41412,-0.004 -0.828,-0.3432 -0.82086,-0.77875 -0.0284,-0.70062 0.58038,-1.27404 1.23157,-1.4226 0.5802,-0.18055 1.25641,-0.10633 1.74823,0.26922 0.36462,0.2511 0.65118,0.62622 0.7113,1.07563 0.13098,0.58038 -0.0388,1.17852 -0.32892,1.68481 -0.37164,0.6792 -0.94165,1.2348 -1.60321,1.63464 -0.6159,0.39313 -1.25317,0.74695 -1.91479,1.05121 -0.004,-0.0139 -0.007,-0.0285 -0.0105,-0.0424 z m 4.41327,-2.86688 c -0.31513,-0.14142 -0.24817,-0.72528 0.12012,-0.73608 0.27612,-0.0637 0.5343,0.2232 0.44934,0.48846 -0.0528,0.25116 -0.35389,0.35742 -0.56946,0.24762 z m 0,-1.59247 c -0.31513,-0.14148 -0.24817,-0.72546 0.12012,-0.73584 0.27612,-0.0637 0.5343,0.22284 0.44934,0.48816 -0.0566,0.25122 -0.35022,0.35748 -0.56946,0.24768 z"
     id="svg_64" />
  <path
     style="fill:#7f0000;stroke-width:0"
     inkscape:connector-curvature="0"
     stroke-linejoin="null"
     stroke-linecap="null"
     d="m 819.99314,749.42056 c 0.0244,-2.62646 4.2619,-3.49188 5.99841,-5.31537 6.71619,-4.5047 13.25916,-9.70886 17.37189,-16.81256 4.37274,-7.25641 6.74542,-16.14441 4.96735,-24.55768 -0.94043,-5.22607 -6.0177,-9.40484 -11.3902,-8.75079 -3.53699,0.48517 -7.625,1.2995 -9.67004,4.56586 -2.22205,1.67071 -1.00153,5.57745 1.9627,4.09338 3.78779,-1.44726 8.54633,1.50562 8.39698,5.6828 0.006,3.96601 -4.0072,6.76209 -7.74787,6.38947 -4.16516,-0.0427 -8.2901,-3.40381 -8.20178,-7.7594 -0.28686,-7.02454 5.78778,-12.76093 12.2934,-14.2312 5.81524,-1.81055 12.57306,-1.0813 17.47967,2.68774 3.64716,2.49286 6.52143,6.27545 7.12067,10.73731 1.29462,5.80346 -0.37854,11.79296 -3.28113,16.84088 -3.72693,6.80218 -9.42663,12.3695 -16.04248,16.3648 -6.14105,3.9162 -12.53296,7.45331 -19.14142,10.52192 -0.0397,-0.15271 -0.0765,-0.30494 -0.11615,-0.45716 z m 44.13355,-28.63379 c -3.16181,-1.43084 -2.46607,-7.25335 1.2149,-7.38006 2.75653,-0.64148 5.33008,2.23669 4.47809,4.89874 -0.53662,2.49072 -3.5249,3.56842 -5.69299,2.48132 z m 0,-15.9176 c -3.16181,-1.43335 -2.46607,-7.2533 1.2149,-7.38458 2.75653,-0.64136 5.33008,2.23657 4.47809,4.89953 -0.54877,2.50031 -3.51263,3.56446 -5.69299,2.48505 z"
     id="svg_65" />
  <path
     style="fill:#7f0000;stroke-width:0"
     inkscape:connector-curvature="0"
     stroke-linejoin="null"
     stroke-linecap="null"
     d="m 878.64903,710.06668 c 6.1e-4,-0.0675 0.10949,-0.0898 0.15417,-0.1366 0.17255,-0.11578 0.3407,-0.24951 0.44641,-0.432 0.11237,-0.18647 0.17334,-0.41486 0.12763,-0.63111 -0.0242,-0.13421 -0.15467,-0.24164 -0.29273,-0.22485 -0.0909,0.0124 -0.19592,0.0334 -0.24847,0.11731 -0.0571,0.0429 -0.0257,0.14337 0.0504,0.10522 0.0974,-0.0372 0.21967,0.0386 0.21582,0.14606 1.3e-4,0.10187 -0.10302,0.17371 -0.19909,0.16418 -0.10706,-10e-4 -0.21302,-0.0875 -0.21076,-0.1994 -0.007,-0.18048 0.14868,-0.32788 0.31586,-0.36566 0.14941,-0.0466 0.32312,-0.0278 0.44916,0.069 0.0937,0.0641 0.1676,0.16126 0.18298,0.27594 0.0333,0.14911 -0.01,0.30298 -0.0843,0.43274 -0.0958,0.17474 -0.24225,0.31781 -0.41223,0.42047 -0.15784,0.10065 -0.32202,0.19159 -0.49188,0.27039 -9.8e-4,-0.004 -0.002,-0.008 -0.003,-0.0117 z m 1.13409,-0.73578 c -0.0813,-0.0368 -0.0634,-0.18634 0.0312,-0.1897 0.0708,-0.0165 0.1369,0.0575 0.11505,0.12592 -0.0138,0.064 -0.0906,0.0917 -0.1463,0.0638 z m 0,-0.40906 c -0.0813,-0.0368 -0.0634,-0.1864 0.0312,-0.18975 0.0708,-0.0165 0.1369,0.0575 0.11505,0.12591 -0.0142,0.0642 -0.0903,0.0916 -0.1463,0.0638 z"
     id="svg_66" />
  <path
     style="fill:#7f0000;stroke-width:0"
     inkscape:connector-curvature="0"
     stroke-linejoin="null"
     stroke-linecap="null"
     d="m 845.69407,699.49863 c 0.003,-0.23139 0.37543,-0.30652 0.52844,-0.46613 0.58826,-0.39703 1.16394,-0.85364 1.52649,-1.47626 0.38147,-0.63806 0.59125,-1.41681 0.43475,-2.15484 -0.0844,-0.45978 -0.5285,-0.82556 -1.00073,-0.76966 -0.30981,0.0439 -0.66943,0.11579 -0.84784,0.40058 -0.19696,0.14691 -0.0876,0.49103 0.17212,0.35956 0.33148,-0.12519 0.75049,0.13147 0.73505,0.50042 0.003,0.34711 -0.35041,0.59107 -0.67871,0.56006 -0.36585,-0.003 -0.72895,-0.30041 -0.71949,-0.682 -0.0251,-0.61615 0.50684,-1.11976 1.07923,-1.24805 0.5097,-0.15943 1.104,-0.0967 1.53253,0.23474 0.32208,0.21905 0.57532,0.55048 0.62549,0.94147 0.11584,0.5097 -0.0314,1.03851 -0.2879,1.47943 -0.32508,0.59729 -0.8255,1.08514 -1.40705,1.43561 -0.53802,0.34387 -1.10125,0.65649 -1.67993,0.92572 -0.003,-0.0124 -0.006,-0.0283 -0.0125,-0.0407 z m 3.87524,-2.51465 c -0.2785,-0.12518 -0.21569,-0.63483 0.10645,-0.64746 0.24365,-0.0565 0.46899,0.19708 0.39392,0.43158 -0.0467,0.21899 -0.30951,0.31274 -0.50037,0.21588 z m 0,-1.39801 c -0.2785,-0.12512 -0.21569,-0.63507 0.10645,-0.64746 0.24365,-0.0565 0.46899,0.19683 0.39392,0.43176 -0.0499,0.21881 -0.30951,0.31268 -0.50037,0.2157 z"
     id="svg_67" />
  <path
     style="fill:#7f0000;stroke-width:0"
     inkscape:connector-curvature="0"
     stroke-linejoin="null"
     stroke-linecap="null"
     d="m 948.80912,719.42898 c 3.7e-4,-0.0407 0.066,-0.0541 0.093,-0.0824 0.10406,-0.0698 0.20544,-0.15045 0.26922,-0.26056 0.0678,-0.11243 0.10456,-0.25018 0.077,-0.38062 -0.0146,-0.081 -0.0933,-0.14575 -0.17658,-0.13562 -0.0548,0.008 -0.11816,0.0202 -0.14984,0.0707 -0.0345,0.0259 -0.0155,0.0865 0.0304,0.0635 0.0587,-0.0225 0.13251,0.0233 0.13019,0.0881 6e-5,0.0615 -0.0621,0.1048 -0.12012,0.099 -0.0645,-6.1e-4 -0.12842,-0.0527 -0.12707,-0.12023 -0.004,-0.10883 0.0897,-0.19776 0.19049,-0.22052 0.0901,-0.0281 0.19488,-0.0168 0.27093,0.0416 0.0565,0.0386 0.10108,0.0972 0.11035,0.16644 0.0201,0.0899 -0.006,0.18274 -0.0508,0.26099 -0.0578,0.10541 -0.14612,0.19165 -0.24866,0.2536 -0.0951,0.0607 -0.19421,0.11554 -0.29663,0.16309 -6.1e-4,-0.002 -0.001,-0.005 -0.002,-0.007 z m 0.68402,-0.44378 c -0.049,-0.0222 -0.0382,-0.11237 0.0189,-0.11438 0.0427,-0.01 0.0826,0.0347 0.0694,0.0759 -0.008,0.0386 -0.0547,0.0553 -0.0883,0.0385 z m 0,-0.24671 c -0.049,-0.0222 -0.0382,-0.11242 0.0189,-0.11444 0.0427,-0.01 0.0826,0.0347 0.0694,0.0759 -0.009,0.0387 -0.0544,0.0552 -0.0883,0.0385 z"
     id="svg_68" />
  <path
     style="fill:#7f0000;stroke-width:0"
     inkscape:connector-curvature="0"
     stroke-linejoin="null"
     stroke-linecap="null"
     d="m 948.29905,720.01663 c 6.1e-4,-0.0675 0.1095,-0.0898 0.15418,-0.1366 0.17254,-0.11578 0.34069,-0.24951 0.44641,-0.432 0.11236,-0.18646 0.17334,-0.41486 0.12762,-0.63111 -0.0242,-0.13421 -0.15466,-0.24163 -0.29272,-0.22485 -0.0909,0.0125 -0.19593,0.0334 -0.24848,0.11731 -0.0571,0.0429 -0.0257,0.14337 0.0504,0.10522 0.0974,-0.0372 0.21966,0.0386 0.21582,0.14606 1.2e-4,0.10187 -0.10303,0.17371 -0.1991,0.16419 -0.10706,-0.001 -0.21301,-0.0875 -0.21075,-0.19941 -0.007,-0.18048 0.14868,-0.32788 0.31585,-0.36566 0.14942,-0.0466 0.32312,-0.0278 0.44916,0.069 0.0937,0.0641 0.1676,0.16126 0.18298,0.27594 0.0333,0.14911 -0.01,0.30298 -0.0843,0.43274 -0.0958,0.17475 -0.24224,0.31781 -0.41223,0.42047 -0.15783,0.10065 -0.32202,0.19159 -0.49188,0.27039 -9.8e-4,-0.004 -0.002,-0.008 -0.003,-0.0117 z m 1.13409,-0.73578 c -0.0813,-0.0368 -0.0634,-0.18634 0.0312,-0.18969 0.0708,-0.0165 0.13691,0.0575 0.11506,0.12591 -0.0138,0.064 -0.0906,0.0917 -0.14631,0.0638 z m 0,-0.40905 c -0.0813,-0.0368 -0.0634,-0.18641 0.0312,-0.18976 0.0708,-0.0165 0.13691,0.0575 0.11506,0.12591 -0.0142,0.0642 -0.0903,0.0916 -0.14631,0.0639 z"
     id="svg_69" />
  <path
     style="fill:#7f0000;stroke-width:0"
     inkscape:connector-curvature="0"
     stroke-linejoin="null"
     stroke-linecap="null"
     d="m 868.70066,719.69034 c 4.9e-4,-0.0526 0.0853,-0.07 0.12024,-0.10651 0.13446,-0.0903 0.26557,-0.19452 0.34802,-0.33679 0.0876,-0.14539 0.13513,-0.32342 0.0995,-0.49206 -0.0189,-0.10462 -0.12061,-0.18836 -0.22821,-0.1753 -0.0709,0.01 -0.15277,0.0261 -0.19373,0.0915 -0.0445,0.0335 -0.02,0.11176 0.0393,0.082 0.0759,-0.029 0.17127,0.0301 0.16821,0.11383 1.3e-4,0.0794 -0.0803,0.13543 -0.15521,0.12805 -0.0834,-9.2e-4 -0.16607,-0.0682 -0.1643,-0.15546 -0.006,-0.14075 0.1159,-0.25567 0.24627,-0.28509 0.11646,-0.0363 0.25189,-0.0217 0.35016,0.0538 0.0731,0.0499 0.13068,0.12567 0.14264,0.21515 0.026,0.11621 -0.008,0.2362 -0.0657,0.33734 -0.0747,0.13623 -0.18885,0.24774 -0.32141,0.32782 -0.12305,0.0784 -0.25104,0.14935 -0.38349,0.21081 -7.3e-4,-0.003 -0.002,-0.006 -0.002,-0.009 z m 0.88416,-0.57367 c -0.0634,-0.0287 -0.0494,-0.14526 0.0244,-0.14789 0.0552,-0.0128 0.10669,0.0449 0.0897,0.0982 -0.0107,0.0499 -0.0707,0.0715 -0.11407,0.0497 z m 0,-0.31891 c -0.0634,-0.0287 -0.0494,-0.14532 0.0244,-0.14795 0.0552,-0.0128 0.10669,0.0449 0.0897,0.0982 -0.011,0.05 -0.0704,0.0714 -0.11407,0.0497 z"
     id="svg_70" />
  <path
     style="fill:#7f0000;stroke-width:0"
     inkscape:connector-curvature="0"
     stroke-linejoin="null"
     stroke-linecap="null"
     d="m 818.94901,511.06665 c 6.1e-4,-0.0675 0.1095,-0.0897 0.15418,-0.1366 0.17254,-0.11578 0.3407,-0.24948 0.44641,-0.43197 0.11237,-0.18647 0.17334,-0.41486 0.12762,-0.63117 -0.0242,-0.13418 -0.15466,-0.24161 -0.29272,-0.22482 -0.0909,0.0125 -0.19592,0.0334 -0.24847,0.11731 -0.0571,0.0429 -0.0257,0.14337 0.0504,0.10522 0.0974,-0.0372 0.21967,0.0386 0.21582,0.14606 1.2e-4,0.10187 -0.10303,0.17374 -0.1991,0.16415 -0.10705,-10e-4 -0.21301,-0.0874 -0.21075,-0.1994 -0.007,-0.18045 0.14868,-0.32782 0.31586,-0.36563 0.14941,-0.0466 0.32312,-0.0278 0.44916,0.069 0.0937,0.0641 0.1676,0.16126 0.18298,0.27594 0.0333,0.14911 -0.01,0.30301 -0.0843,0.43271 -0.0958,0.17478 -0.24225,0.31784 -0.41223,0.42047 -0.15784,0.10068 -0.32202,0.19159 -0.49188,0.27039 -9.8e-4,-0.004 -0.002,-0.008 -0.003,-0.0117 z m 1.1341,-0.73575 c -0.0813,-0.0368 -0.0634,-0.18637 0.0312,-0.18973 0.0708,-0.0165 0.1369,0.0575 0.11505,0.12589 -0.0138,0.064 -0.0906,0.0918 -0.1463,0.0638 z m 0,-0.40912 c -0.0813,-0.0368 -0.0634,-0.18634 0.0312,-0.18973 0.0708,-0.0165 0.1369,0.0575 0.11505,0.12589 -0.0142,0.0642 -0.0903,0.0917 -0.1463,0.0638 z"
     id="svg_71" />
  <path
     style="fill:#7f0000;stroke-width:0"
     inkscape:connector-curvature="0"
     stroke-linejoin="null"
     stroke-linecap="null"
     d="m 799.04905,521.01666 c 6.1e-4,-0.0675 0.1095,-0.0897 0.15418,-0.1366 0.17254,-0.11578 0.34069,-0.24948 0.44641,-0.43197 0.11236,-0.18646 0.17334,-0.41486 0.12762,-0.63117 -0.0242,-0.13418 -0.15466,-0.2416 -0.29272,-0.22482 -0.0909,0.0125 -0.19593,0.0334 -0.24848,0.11731 -0.0571,0.0429 -0.0257,0.14337 0.0504,0.10523 0.0974,-0.0372 0.21966,0.0386 0.21582,0.14605 1.2e-4,0.10187 -0.10303,0.17374 -0.1991,0.16416 -0.10706,-0.001 -0.21301,-0.0874 -0.21075,-0.19941 -0.007,-0.18045 0.14868,-0.32782 0.31585,-0.36563 0.14942,-0.0466 0.32312,-0.0278 0.44916,0.069 0.0937,0.0641 0.1676,0.16126 0.18298,0.27594 0.0333,0.14911 -0.01,0.30301 -0.0843,0.43271 -0.0958,0.17478 -0.24224,0.31784 -0.41223,0.42047 -0.15783,0.10068 -0.32202,0.19159 -0.49188,0.27039 -9.8e-4,-0.004 -0.002,-0.008 -0.003,-0.0117 z m 1.13409,-0.73575 c -0.0813,-0.0368 -0.0634,-0.18637 0.0312,-0.18972 0.0708,-0.0165 0.13691,0.0575 0.11506,0.12588 -0.0138,0.064 -0.0906,0.0918 -0.14631,0.0638 z m 0,-0.40912 c -0.0813,-0.0368 -0.0634,-0.18633 0.0312,-0.18972 0.0708,-0.0165 0.13691,0.0575 0.11506,0.12588 -0.0142,0.0642 -0.0903,0.0917 -0.14631,0.0638 z"
     id="svg_72" />
  <path
     style="fill:#7f0000;stroke-width:0"
     inkscape:connector-curvature="0"
     stroke-linejoin="null"
     stroke-linecap="null"
     d="m 1282.8871,292.13278 c 0,-0.26265 0.4259,-0.3491 0.5996,-0.53131 0.6714,-0.45041 1.3253,-0.97035 1.7362,-1.68016 0.4376,-0.72525 0.6741,-1.61365 0.4965,-2.45485 -0.094,-0.52205 -0.6018,-0.93979 -1.1386,-0.87445 -0.3534,0.0484 -0.7614,0.12972 -0.9664,0.45622 -0.2223,0.16677 -0.1002,0.55771 0.1959,0.40918 0.3789,-0.14456 0.8549,0.15032 0.8396,0.56815 3e-4,0.39625 -0.4009,0.67572 -0.7743,0.6385 -0.4164,-0.004 -0.8285,-0.34007 -0.8193,-0.77551 -0.029,-0.70186 0.578,-1.27513 1.2281,-1.42226 0.581,-0.18106 1.2568,-0.10818 1.7467,0.26856 0.3645,0.24927 0.6521,0.6272 0.7118,1.07333 0.1296,0.57996 -0.038,1.17842 -0.3277,1.683 -0.3728,0.67975 -0.9422,1.23621 -1.6032,1.63539 -0.6141,0.39157 -1.2527,0.74515 -1.9135,1.05172 0,-0.0152 -0.01,-0.0303 -0.011,-0.0455 z m 4.4108,-2.86172 c -0.3159,-0.1431 -0.246,-0.72481 0.1213,-0.73793 0.2755,-0.0642 0.5327,0.22355 0.448,0.48964 -0.054,0.249 -0.3527,0.35696 -0.5693,0.24829 z m 0,-1.59122 c -0.3159,-0.14319 -0.246,-0.72487 0.1213,-0.73793 0.2755,-0.0642 0.5327,0.22351 0.448,0.48967 -0.055,0.24986 -0.3509,0.35643 -0.5693,0.24826 z"
     id="svg_73" />
  <path
     style="fill:#7f0000;stroke-width:0"
     inkscape:connector-curvature="0"
     stroke-linejoin="null"
     stroke-linecap="null"
     d="m 1108.0088,211.97932 c 4e-4,-0.0407 0.066,-0.0541 0.093,-0.0824 0.1042,-0.0698 0.2055,-0.15047 0.2692,-0.26055 0.068,-0.11245 0.1046,-0.25023 0.077,-0.38067 -0.015,-0.0809 -0.093,-0.14572 -0.1765,-0.13559 -0.055,0.007 -0.1182,0.0201 -0.1499,0.0707 -0.034,0.0259 -0.016,0.0865 0.03,0.0635 0.059,-0.0224 0.1326,0.0233 0.1302,0.0881 0,0.0614 -0.062,0.10477 -0.1201,0.099 -0.064,-6.4e-4 -0.1285,-0.0527 -0.127,-0.12025 0,-0.10885 0.09,-0.19773 0.1904,-0.22056 0.09,-0.0281 0.1949,-0.0168 0.2709,0.0417 0.057,0.0387 0.101,0.0973 0.1103,0.16643 0.02,0.0899 -0.01,0.18274 -0.051,0.26098 -0.058,0.10541 -0.1461,0.1917 -0.2486,0.25361 -0.095,0.0607 -0.1942,0.11555 -0.2967,0.16308 -6e-4,-0.002 0,-0.005 0,-0.007 z m 0.684,-0.44377 c -0.049,-0.0222 -0.038,-0.11239 0.019,-0.11442 0.043,-0.01 0.082,0.0347 0.069,0.0759 -0.01,0.0386 -0.055,0.0554 -0.088,0.0385 z m 0,-0.24675 c -0.049,-0.0222 -0.038,-0.11239 0.019,-0.11442 0.043,-0.01 0.082,0.0346 0.069,0.0759 -0.01,0.0387 -0.054,0.0553 -0.088,0.0385 z"
     id="svg_74" />
  <path
     style="fill:#7f0000;stroke-width:0"
     inkscape:connector-curvature="0"
     stroke-linejoin="null"
     stroke-linecap="null"
     d="m 868.69901,710.06668 c 6.1e-4,-0.0675 0.1095,-0.0898 0.15418,-0.1366 0.17254,-0.11578 0.3407,-0.24951 0.44641,-0.432 0.11237,-0.18647 0.17334,-0.41486 0.12762,-0.63111 -0.0242,-0.13421 -0.15466,-0.24164 -0.29272,-0.22485 -0.0909,0.0124 -0.19592,0.0334 -0.24847,0.11731 -0.0571,0.0429 -0.0257,0.14337 0.0504,0.10522 0.0974,-0.0372 0.21967,0.0386 0.21582,0.14606 1.2e-4,0.10187 -0.10303,0.17371 -0.1991,0.16418 -0.10705,-10e-4 -0.21301,-0.0875 -0.21075,-0.1994 -0.007,-0.18048 0.14868,-0.32788 0.31586,-0.36566 0.14941,-0.0466 0.32312,-0.0278 0.44916,0.069 0.0937,0.0641 0.1676,0.16126 0.18298,0.27594 0.0333,0.14911 -0.01,0.30298 -0.0843,0.43274 -0.0958,0.17474 -0.24225,0.31781 -0.41223,0.42047 -0.15784,0.10065 -0.32202,0.19159 -0.49188,0.27039 -9.8e-4,-0.004 -0.002,-0.008 -0.003,-0.0117 z m 1.1341,-0.73578 c -0.0813,-0.0368 -0.0634,-0.18634 0.0312,-0.1897 0.0708,-0.0165 0.1369,0.0575 0.11505,0.12592 -0.0138,0.064 -0.0906,0.0917 -0.1463,0.0638 z m 0,-0.40906 c -0.0813,-0.0368 -0.0634,-0.1864 0.0312,-0.18975 0.0708,-0.0165 0.1369,0.0575 0.11505,0.12591 -0.0142,0.0642 -0.0903,0.0916 -0.1463,0.0638 z"
     id="svg_75" />
  <path
     style="fill:#7f0000;stroke-width:0"
     inkscape:connector-curvature="0"
     stroke-linejoin="null"
     stroke-linecap="null"
     d="m 868.69901,729.96664 c 6.1e-4,-0.0675 0.1095,-0.0898 0.15418,-0.13659 0.17254,-0.11579 0.3407,-0.24952 0.44641,-0.43201 0.11237,-0.18646 0.17334,-0.41486 0.12762,-0.6311 -0.0242,-0.13422 -0.15466,-0.24164 -0.29272,-0.22486 -0.0909,0.0125 -0.19592,0.0334 -0.24847,0.11731 -0.0571,0.0429 -0.0257,0.14337 0.0504,0.10523 0.0974,-0.0372 0.21967,0.0386 0.21582,0.14605 1.2e-4,0.10187 -0.10303,0.17371 -0.1991,0.16419 -0.10705,-10e-4 -0.21301,-0.0875 -0.21075,-0.1994 -0.007,-0.18048 0.14868,-0.32788 0.31586,-0.36567 0.14941,-0.0466 0.32312,-0.0278 0.44916,0.069 0.0937,0.0641 0.1676,0.16125 0.18298,0.27594 0.0333,0.1491 -0.01,0.30297 -0.0843,0.43273 -0.0958,0.17475 -0.24225,0.31781 -0.41223,0.42048 -0.15784,0.10064 -0.32202,0.19158 -0.49188,0.27038 -9.8e-4,-0.004 -0.002,-0.008 -0.003,-0.0117 z m 1.1341,-0.73577 c -0.0813,-0.0368 -0.0634,-0.18634 0.0312,-0.1897 0.0708,-0.0165 0.1369,0.0575 0.11505,0.12591 -0.0138,0.064 -0.0906,0.0917 -0.1463,0.0638 z m 0,-0.40906 c -0.0813,-0.0368 -0.0634,-0.1864 0.0312,-0.18976 0.0708,-0.0165 0.1369,0.0575 0.11505,0.12592 -0.0142,0.0642 -0.0903,0.0916 -0.1463,0.0638 z"
     id="svg_76" />
  <path
     style="fill:#7f0000;stroke-width:0"
     inkscape:connector-curvature="0"
     stroke-linejoin="null"
     stroke-linecap="null"
     d="m 1356.7598,152.27647 c 4e-4,-0.0407 0.066,-0.0541 0.093,-0.0823 0.104,-0.0698 0.2052,-0.15029 0.2689,-0.26022 0.068,-0.11233 0.1044,-0.24992 0.077,-0.3802 -0.014,-0.0809 -0.093,-0.14556 -0.1763,-0.13544 -0.055,0.007 -0.118,0.0201 -0.1496,0.0707 -0.035,0.0258 -0.016,0.0864 0.03,0.0634 0.059,-0.0224 0.1323,0.0233 0.13,0.088 0,0.0614 -0.062,0.10465 -0.12,0.0989 -0.064,-6.4e-4 -0.1283,-0.0527 -0.127,-0.12012 0,-0.1087 0.09,-0.19748 0.1903,-0.22026 0.09,-0.0281 0.1947,-0.0168 0.2705,0.0416 0.056,0.0386 0.101,0.0971 0.1103,0.16623 0.02,0.0898 -0.01,0.18253 -0.051,0.26068 -0.058,0.10527 -0.1459,0.19145 -0.2484,0.25328 -0.095,0.0606 -0.194,0.11541 -0.2963,0.16289 -6e-4,-0.002 0,-0.005 0,-0.007 z m 0.6831,-0.44321 c -0.049,-0.0222 -0.038,-0.11227 0.019,-0.1143 0.043,-0.01 0.082,0.0346 0.069,0.0759 -0.01,0.0386 -0.055,0.0553 -0.088,0.0384 z m 0,-0.24644 c -0.049,-0.0222 -0.038,-0.11227 0.019,-0.1143 0.043,-0.01 0.082,0.0346 0.069,0.0758 -0.01,0.0387 -0.054,0.0552 -0.088,0.0385 z"
     id="svg_77" />
  <path
     style="fill:#7f0000;stroke-width:0"
     inkscape:connector-curvature="0"
     stroke-linejoin="null"
     stroke-linecap="null"
     d="m 1136.6297,143.74567 c 9e-4,-0.10527 0.1707,-0.13996 0.2404,-0.213 0.2691,-0.18055 0.5312,-0.38901 0.6961,-0.67357 0.1753,-0.29075 0.2702,-0.64689 0.1988,-0.98413 -0.038,-0.20928 -0.2411,-0.37676 -0.4561,-0.35056 -0.1418,0.0194 -0.3056,0.052 -0.3875,0.18289 -0.089,0.0669 -0.04,0.22358 0.078,0.16404 0.1519,-0.0579 0.3426,0.0602 0.3365,0.22777 2e-4,0.15883 -0.1606,0.27088 -0.3105,0.25598 -0.1667,-0.002 -0.332,-0.13633 -0.3285,-0.31092 -0.011,-0.28137 0.2319,-0.51118 0.4924,-0.57015 0.2331,-0.0726 0.5039,-0.0434 0.7004,0.10765 0.1461,0.0999 0.2612,0.25145 0.2854,0.43029 0.052,0.23249 -0.015,0.47245 -0.1314,0.67472 -0.1495,0.27249 -0.3777,0.49557 -0.6429,0.6556 -0.2461,0.15699 -0.5021,0.29876 -0.767,0.42163 0,-0.006 0,-0.0122 0,-0.0182 z m 1.7683,-1.14725 c -0.1266,-0.0574 -0.099,-0.29058 0.049,-0.29583 0.1104,-0.0257 0.2135,0.0896 0.1795,0.1963 -0.021,0.0998 -0.1414,0.14309 -0.2282,0.0995 z m 0,-0.63791 c -0.1266,-0.0574 -0.099,-0.2906 0.049,-0.29584 0.1104,-0.0257 0.2135,0.0896 0.1795,0.1963 -0.022,0.10017 -0.1406,0.14291 -0.2282,0.0995 z"
     id="svg_78" />
  <path
     style="fill:#7f0000;stroke-width:0"
     inkscape:connector-curvature="0"
     stroke-linejoin="null"
     stroke-linecap="null"
     d="m 1246.7991,212.56665 c 6e-4,-0.0675 0.1095,-0.0898 0.1542,-0.1366 0.1726,-0.1158 0.3407,-0.24948 0.4464,-0.43197 0.1124,-0.18647 0.1733,-0.41487 0.1275,-0.63115 -0.024,-0.13422 -0.1546,-0.24162 -0.2926,-0.22482 -0.091,0.0124 -0.1959,0.0334 -0.2485,0.11729 -0.057,0.0429 -0.026,0.14339 0.05,0.10521 0.097,-0.0372 0.2197,0.0386 0.2158,0.14607 2e-4,0.10187 -0.103,0.17372 -0.1991,0.16415 -0.107,-10e-4 -0.213,-0.0874 -0.2107,-0.19938 -0.01,-0.18045 0.1487,-0.32784 0.3158,-0.36566 0.1495,-0.0466 0.3232,-0.0278 0.4491,0.069 0.094,0.0641 0.1676,0.16126 0.183,0.27596 0.033,0.14911 -0.01,0.30298 -0.084,0.43271 -0.096,0.17475 -0.2422,0.31782 -0.4122,0.42045 -0.1579,0.10068 -0.3221,0.19159 -0.492,0.2704 0,-0.004 0,-0.008 0,-0.0117 z m 1.134,-0.73575 c -0.081,-0.0368 -0.063,-0.18635 0.031,-0.18973 0.071,-0.0165 0.1369,0.0575 0.1151,0.12589 -0.014,0.064 -0.091,0.0918 -0.1464,0.0638 z m 0,-0.40912 c -0.081,-0.0368 -0.063,-0.18635 0.031,-0.18971 0.071,-0.0165 0.1369,0.0575 0.1151,0.12588 -0.014,0.0642 -0.09,0.0916 -0.1464,0.0638 z"
     id="svg_79" />
  <path
     style="fill:#7f0000;stroke-width:0"
     inkscape:connector-curvature="0"
     stroke-linejoin="null"
     stroke-linecap="null"
     d="m 1246.7991,212.56665 c 6e-4,-0.0675 0.1095,-0.0898 0.1542,-0.1366 0.1726,-0.1158 0.3407,-0.24948 0.4464,-0.43197 0.1124,-0.18647 0.1733,-0.41487 0.1275,-0.63115 -0.024,-0.13422 -0.1546,-0.24162 -0.2926,-0.22482 -0.091,0.0124 -0.1959,0.0334 -0.2485,0.11729 -0.057,0.0429 -0.026,0.14339 0.05,0.10521 0.097,-0.0372 0.2197,0.0386 0.2158,0.14607 2e-4,0.10187 -0.103,0.17372 -0.1991,0.16415 -0.107,-10e-4 -0.213,-0.0874 -0.2107,-0.19938 -0.01,-0.18045 0.1487,-0.32784 0.3158,-0.36566 0.1495,-0.0466 0.3232,-0.0278 0.4491,0.069 0.094,0.0641 0.1676,0.16126 0.183,0.27596 0.033,0.14911 -0.01,0.30298 -0.084,0.43271 -0.096,0.17475 -0.2422,0.31782 -0.4122,0.42045 -0.1579,0.10068 -0.3221,0.19159 -0.492,0.2704 0,-0.004 0,-0.008 0,-0.0117 z m 1.134,-0.73575 c -0.081,-0.0368 -0.063,-0.18635 0.031,-0.18973 0.071,-0.0165 0.1369,0.0575 0.1151,0.12589 -0.014,0.064 -0.091,0.0918 -0.1464,0.0638 z m 0,-0.40912 c -0.081,-0.0368 -0.063,-0.18635 0.031,-0.18971 0.071,-0.0165 0.1369,0.0575 0.1151,0.12588 -0.014,0.0642 -0.09,0.0916 -0.1464,0.0638 z"
     id="svg_80" />
  <path
     style="fill:#7f0000;stroke-width:0"
     inkscape:connector-curvature="0"
     stroke-linejoin="null"
     stroke-linecap="null"
     d="m 1157.5867,192.66925 c 4e-4,-0.0498 0.081,-0.0662 0.1136,-0.10069 0.1272,-0.0854 0.2511,-0.1839 0.3291,-0.31844 0.083,-0.13745 0.1277,-0.30583 0.094,-0.46527 -0.018,-0.0989 -0.114,-0.17812 -0.2157,-0.16573 -0.067,0.009 -0.1444,0.0246 -0.1832,0.0865 -0.042,0.0316 -0.019,0.10571 0.037,0.0776 0.072,-0.0274 0.1619,0.0285 0.1591,0.10768 10e-5,0.0751 -0.076,0.12807 -0.1467,0.12102 -0.079,-7.9e-4 -0.1571,-0.0644 -0.1554,-0.14699 -0.01,-0.13303 0.1096,-0.24167 0.2328,-0.26956 0.1102,-0.0343 0.2382,-0.0205 0.331,0.0509 0.069,0.0472 0.1235,0.11888 0.1349,0.20343 0.025,0.10992 -0.01,0.22334 -0.062,0.31899 -0.071,0.12881 -0.1786,0.23428 -0.304,0.30993 -0.1163,0.0742 -0.2373,0.14124 -0.3626,0.19934 -6e-4,-0.003 0,-0.006 0,-0.009 z m 0.8359,-0.54237 c -0.06,-0.0271 -0.047,-0.13738 0.023,-0.13987 0.052,-0.0122 0.1009,0.0424 0.085,0.0928 -0.01,0.0472 -0.067,0.0676 -0.1079,0.0471 z m 0,-0.30159 c -0.06,-0.0271 -0.047,-0.13738 0.023,-0.13985 0.052,-0.0122 0.1009,0.0424 0.085,0.0928 -0.011,0.0473 -0.066,0.0675 -0.1079,0.047 z"
     id="svg_81" />
  <path
     style="fill:#7f0000;stroke-width:0"
     inkscape:connector-curvature="0"
     stroke-linejoin="null"
     stroke-linecap="null"
     d="m 868.69901,729.96664 c 6.1e-4,-0.0675 0.1095,-0.0898 0.15418,-0.13659 0.17254,-0.11579 0.3407,-0.24952 0.44641,-0.43201 0.11237,-0.18646 0.17334,-0.41486 0.12762,-0.6311 -0.0242,-0.13422 -0.15466,-0.24164 -0.29272,-0.22486 -0.0909,0.0125 -0.19592,0.0334 -0.24847,0.11731 -0.0571,0.0429 -0.0257,0.14337 0.0504,0.10523 0.0974,-0.0372 0.21967,0.0386 0.21582,0.14605 1.2e-4,0.10187 -0.10303,0.17371 -0.1991,0.16419 -0.10705,-10e-4 -0.21301,-0.0875 -0.21075,-0.1994 -0.007,-0.18048 0.14868,-0.32788 0.31586,-0.36567 0.14941,-0.0466 0.32312,-0.0278 0.44916,0.069 0.0937,0.0641 0.1676,0.16125 0.18298,0.27594 0.0333,0.1491 -0.01,0.30297 -0.0843,0.43273 -0.0958,0.17475 -0.24225,0.31781 -0.41223,0.42048 -0.15784,0.10064 -0.32202,0.19158 -0.49188,0.27038 -9.8e-4,-0.004 -0.002,-0.008 -0.003,-0.0117 z m 1.1341,-0.73577 c -0.0813,-0.0368 -0.0634,-0.18634 0.0312,-0.1897 0.0708,-0.0165 0.1369,0.0575 0.11505,0.12591 -0.0138,0.064 -0.0906,0.0917 -0.1463,0.0638 z m 0,-0.40906 c -0.0813,-0.0368 -0.0634,-0.1864 0.0312,-0.18976 0.0708,-0.0165 0.1369,0.0575 0.11505,0.12592 -0.0142,0.0642 -0.0903,0.0916 -0.1463,0.0638 z"
     id="svg_82" />
  <rect
     style="fill:#007f3f"
     stroke-linejoin="null"
     stroke-linecap="null"
     x="2077.7915"
     y="691.93042"
     width="130"
     height="50"
     id="svg_85" />
  <rect
     style="fill:#007f3f"
     stroke-linejoin="null"
     stroke-linecap="null"
     x="1092.7913"
     y="586.93042"
     width="345"
     height="125"
     id="svg_87" />
  <path
     sodipodi:nodetypes="ccsc"
     inkscape:connector-curvature="0"
     id="path4200-1"
     d="m 87.646064,123.44301 c 30.384686,-6.01557 37.918416,-2.33522 37.918416,-2.33522 0,0 7.91508,2.40408 5.98546,12.18702 -1.43632,7.28216 -11.87951,9.4292 -11.87951,9.4292"
     style="fill:none;fill-rule:evenodd;stroke:#19647f;stroke-width:6.4000001;stroke-linecap:round;stroke-linejoin:miter;stroke-miterlimit:4;stroke-dasharray:none;stroke-opacity:1" />
  <defs
     id="defs3387">
    <filter
       height="2"
       width="2"
       y="-0.5"
       x="-0.5"
       id="svg_60_blur">
      <feGaussianBlur
         stdDeviation="5.6"
         in="SourceGraphic"
         id="feGaussianBlur3390" />
    </filter>
  </defs>
  <path
     sodipodi:nodetypes="ccsc"
     inkscape:connector-curvature="0"
     id="path4200-1-5"
     d="M 86.754729,122.42273 C 66.352753,99.116618 65.773156,90.752058 65.773156,90.752058 c 0,0 -1.875544,-8.056688 7.561563,-11.277098 7.024663,-2.397169 14.105673,5.573392 14.105673,5.573392"
     style="fill:none;fill-rule:evenodd;stroke:#19647f;stroke-width:6.4000001;stroke-linecap:round;stroke-linejoin:miter;stroke-miterlimit:4;stroke-dasharray:none;stroke-opacity:1" />
  <path
     sodipodi:nodetypes="ccsc"
     inkscape:connector-curvature="0"
     id="path4200-1-0"
     d="m 87.933032,123.67454 c -9.982728,29.32167 -16.936857,34.00596 -16.936857,34.00596 0,0 -6.03951,5.65259 -13.547012,-0.90996 C 51.860825,151.88556 55.223,141.76796 55.223,141.76796"
     style="fill:none;fill-rule:evenodd;stroke:#19647f;stroke-width:6.4000001;stroke-linecap:round;stroke-linejoin:miter;stroke-miterlimit:4;stroke-dasharray:none;stroke-opacity:1" />
</svg>
